<?xml version="1.0" encoding="iso-8859-1"?>
<!-- Generator: Adobe Illustrator 19.0.0, SVG Export Plug-In . SVG Version: 6.00 Build 0)  -->
<svg version="1.1" id="Capa_1" xmlns="http://www.w3.org/2000/svg" xmlns:xlink="http://www.w3.org/1999/xlink" x="0px" y="0px"
	 viewBox="0 0 512 512" style="enable-background:new 0 0 512 512;" xml:space="preserve">
<g>
	<g transform="translate(1 1)">
		<path style="fill:#00695C;" d="M476.867,135.533v8.533c0.012,15.846-6.278,31.046-17.483,42.251
			c-11.205,11.205-26.405,17.494-42.251,17.483l-4.011-4.011c23.021-8.89,38.186-31.044,38.144-55.723v-8.533
			c0.007-27.16-10.779-53.211-29.984-72.416c-19.205-19.205-45.256-29.991-72.416-29.984l25.6,0
			c27.16-0.007,53.211,10.779,72.416,29.984C466.088,82.323,476.874,108.373,476.867,135.533z"/>
		<path style="fill:#009688;" d="M451.267,135.533v8.533c0.042,24.678-15.123,46.832-38.144,55.723L357.4,144.067
			c-0.018-24.431,14.857-46.406,37.547-55.467c-6.46-2.818-13.432-4.271-20.48-4.267H135.533c-7.048-0.004-14.02,1.449-20.48,4.267
			c22.689,9.06,37.565,31.035,37.547,55.467L92.867,203.8c-15.849,0.023-31.056-6.263-42.263-17.47
			c-11.207-11.207-17.493-26.414-17.47-42.263v-8.533c-0.007-27.16,10.779-53.211,29.984-72.416s45.256-29.991,72.416-29.984
			h213.333c27.16-0.007,53.211,10.779,72.416,29.984C440.488,82.323,451.274,108.373,451.267,135.533z"/>
		<g>
			<path style="fill:#4CAF50;" d="M203.8,7.533c9.426,0,17.067,7.641,17.067,17.067v204.8h-34.133V24.6
				C186.733,15.174,194.374,7.533,203.8,7.533z"/>
			<path style="fill:#4CAF50;" d="M306.2,7.533c9.426,0,17.067,7.641,17.067,17.067v204.8h-34.133V24.6
				C289.133,15.174,296.774,7.533,306.2,7.533z"/>
		</g>
		<path style="fill:#2E7D32;" d="M407.576,502.467H102.424c-10.506-0.011-20.423-4.857-26.888-13.138
			c-6.465-8.281-8.76-19.077-6.221-29.272l54.443-217.771c1.892-7.595,8.728-12.915,16.555-12.885h229.376
			c7.827-0.03,14.662,5.29,16.555,12.885l54.443,217.771c2.538,10.195,0.244,20.991-6.221,29.272
			C427.999,497.61,418.082,502.455,407.576,502.467z"/>
		<path style="fill:#4CAF50;" d="M383,502.467H102.424c-10.506-0.011-20.423-4.857-26.888-13.138
			c-6.465-8.281-8.76-19.077-6.221-29.272l54.443-217.771c1.892-7.595,8.728-12.915,16.555-12.885h204.8
			c7.827-0.03,14.662,5.29,16.555,12.885l54.443,217.771c2.538,10.195,0.244,20.991-6.221,29.272
			C403.423,497.61,393.506,502.455,383,502.467z"/>
		<rect x="220.867" y="178.2" style="fill:#009688;" width="68.267" height="51.2"/>
		<path style="fill:#607D8B;" d="M357.4,365.933c0.007,27.16-10.779,53.211-29.984,72.416
			c-19.205,19.205-45.256,29.991-72.416,29.984c-4.281,0.019-8.559-0.266-12.8-0.853c-51.194-6.424-89.601-49.951-89.601-101.547
			s38.407-95.123,89.601-101.547c4.241-0.587,8.519-0.872,12.8-0.853c27.16-0.008,53.211,10.779,72.416,29.984
			C346.621,312.723,357.408,338.773,357.4,365.933z"/>
		<ellipse style="fill:#CFD8DC;" cx="242.2" cy="365.933" rx="89.6" ry="101.547"/>
		<circle style="fill:#607D8B;" cx="255" cy="365.933" r="25.6"/>
	</g>
	<g>
		<path d="M486.4,136.533C486.331,75.295,436.705,25.669,375.467,25.6H332.8c0-14.138-11.462-25.6-25.6-25.6s-25.6,11.462-25.6,25.6
			h-51.2c0-14.138-11.462-25.6-25.6-25.6c-14.139,0-25.6,11.462-25.6,25.6h-42.667C75.295,25.669,25.669,75.295,25.6,136.533v8.533
			c0.043,37.685,30.582,68.224,68.267,68.267c2.263,0,4.434-0.899,6.033-2.5l59.733-59.733c1.6-1.6,2.5-3.77,2.5-6.033
			c0.026-19.626-8.451-38.301-23.242-51.2H179.2v128h-37.875c-11.751-0.013-21.998,7.988-24.833,19.392L62.058,458.988
			c-3.189,12.746-0.326,26.25,7.76,36.606C77.904,505.95,90.311,512.002,103.45,512H408.55c13.14,0.002,25.547-6.051,33.633-16.408
			c8.086-10.357,10.948-23.862,7.759-36.609l-54.434-217.725c-2.836-11.404-13.082-19.405-24.833-19.392H332.8v-128h40.309
			c-14.791,12.9-23.268,31.574-23.242,51.2c0.001,2.263,0.9,4.433,2.5,6.033l59.733,59.733c1.6,1.601,3.77,2.5,6.033,2.5
			c37.685-0.043,68.224-30.582,68.267-68.267V136.533z M230.4,221.867v-34.133h51.2v34.133H230.4z M281.6,170.667h-51.2v-76.8h51.2
			V170.667z M281.6,42.667V76.8h-51.2V42.667H281.6z M136.533,76.8c-8.2,0.01-16.312,1.697-23.836,4.956l-0.012,0.004l-0.06,0.023
			c-0.279,0.171-0.546,0.359-0.802,0.563c-1.526,0.709-2.721,1.977-3.338,3.541c-0.099,0.202-0.275,0.337-0.36,0.55l-0.005,0.024
			c-0.837,2.106-0.798,4.459,0.108,6.537l0.005,0.022c0.406,0.896,0.966,1.713,1.654,2.415c0.186,0.197,0.404,0.35,0.61,0.53
			c0.591,0.517,1.251,0.949,1.961,1.282c0.157,0.074,0.261,0.212,0.425,0.278c18.332,7.254,30.828,24.441,32.075,44.117
			l-54.517,54.513c-26.874-1.834-47.745-24.152-47.775-51.088v-8.533c0.059-51.817,42.05-93.808,93.867-93.867H179.2V76.8H136.533z
			 M196.267,25.6c0-4.713,3.821-8.533,8.533-8.533c4.713,0,8.533,3.821,8.533,8.533v196.267h-17.067V25.6z M378.958,245.4
			l54.433,217.721c1.91,7.649,0.19,15.751-4.662,21.965c-4.852,6.214-12.296,9.846-20.179,9.848H103.45
			c-7.883-0.001-15.326-3.633-20.178-9.846c-4.852-6.213-6.572-14.314-4.663-21.963L133.041,245.4
			c0.948-3.802,4.365-6.47,8.284-6.467h229.35C374.594,238.931,378.01,241.598,378.958,245.4z M298.667,221.867V25.6
			c0-4.713,3.82-8.533,8.533-8.533s8.533,3.821,8.533,8.533v196.267H298.667z M421.558,196.154l-54.517-54.513
			c1.247-19.676,13.743-36.863,32.075-44.117c0.164-0.065,0.267-0.204,0.425-0.278c0.71-0.334,1.371-0.765,1.961-1.282
			c0.206-0.18,0.423-0.332,0.61-0.53c0.688-0.702,1.248-1.519,1.654-2.415l0.005-0.022c0.906-2.077,0.945-4.43,0.108-6.537
			l-0.005-0.024c-0.086-0.215-0.263-0.353-0.364-0.557c-0.622-1.569-1.822-2.838-3.353-3.547c-0.25-0.199-0.511-0.382-0.783-0.55
			l-0.059-0.022l-0.007-0.003c-7.526-3.262-15.64-4.949-23.842-4.958H332.8V42.667h42.667c51.817,0.059,93.808,42.05,93.867,93.867
			v8.533C469.303,172.002,448.432,194.321,421.558,196.154z"/>
		<path d="M145.067,366.933c0,61.267,49.667,110.933,110.933,110.933S366.933,428.2,366.933,366.933S317.267,256,256,256
			C194.762,256.069,145.136,305.695,145.067,366.933z M349.867,366.933c0,51.841-42.026,93.867-93.867,93.867
			s-93.867-42.026-93.867-93.867s42.026-93.867,93.867-93.867C307.817,273.125,349.808,315.116,349.867,366.933z"/>
		<path d="M247.467,298.667v8.533c0,4.713,3.821,8.533,8.533,8.533c4.713,0,8.533-3.82,8.533-8.533v-8.533
			c0-4.713-3.821-8.533-8.533-8.533C251.287,290.133,247.467,293.954,247.467,298.667z"/>
		<path d="M256,418.133c-2.263-0.001-4.434,0.898-6.035,2.499c-1.6,1.6-2.499,3.771-2.499,6.035v8.533
			c0,4.713,3.821,8.533,8.533,8.533c4.713,0,8.533-3.821,8.533-8.533v-8.533c0.001-2.263-0.898-4.434-2.499-6.035
			C260.434,419.032,258.263,418.133,256,418.133z"/>
		<path d="M218.742,319.471c1.523,2.642,4.341,4.271,7.392,4.272c3.05,0.001,5.869-1.626,7.394-4.268s1.524-5.896-0.002-8.537
			l-4.267-7.392c-2.358-4.08-7.575-5.477-11.656-3.121c-4.081,2.356-5.481,7.573-3.127,11.655L218.742,319.471z"/>
		<path d="M293.258,414.396c-2.358-4.08-7.575-5.477-11.656-3.121c-4.081,2.356-5.481,7.573-3.127,11.655l4.267,7.392
			c2.358,4.08,7.575,5.477,11.656,3.121c4.081-2.356,5.481-7.573,3.127-11.655L293.258,414.396z"/>
		<path d="M208.533,329.679l-7.383-4.267c-2.64-1.535-5.899-1.542-8.546-0.018c-2.647,1.524-4.277,4.346-4.274,7.4
			c0.003,3.054,1.637,5.874,4.287,7.393l7.383,4.267c1.293,0.752,2.762,1.148,4.258,1.146c3.864,0.006,7.251-2.586,8.253-6.318
			C213.513,335.549,211.881,331.61,208.533,329.679z"/>
		<path d="M303.467,404.188l7.383,4.267c1.293,0.752,2.762,1.148,4.258,1.146c3.865,0.006,7.251-2.586,8.253-6.318
			s-0.63-7.672-3.978-9.603L312,389.413c-2.64-1.535-5.899-1.542-8.546-0.018s-4.277,4.346-4.274,7.4
			C299.183,399.848,300.818,402.668,303.467,404.188z"/>
		<path d="M204.8,366.933c0.001-2.263-0.898-4.434-2.499-6.035c-1.6-1.6-3.771-2.499-6.035-2.499h-8.533
			c-4.713,0-8.533,3.82-8.533,8.533s3.821,8.533,8.533,8.533h8.533c2.263,0.001,4.434-0.898,6.035-2.499
			C203.902,371.368,204.801,369.197,204.8,366.933z"/>
		<path d="M307.2,366.933c-0.001,2.263,0.898,4.434,2.499,6.035c1.6,1.6,3.771,2.499,6.035,2.499h8.533
			c4.713,0,8.533-3.82,8.533-8.533s-3.82-8.533-8.533-8.533h-8.533c-2.263-0.001-4.434,0.898-6.035,2.499
			C308.098,362.499,307.199,364.67,307.2,366.933z"/>
		<path d="M200,389.413l-7.383,4.267c-2.649,1.519-4.284,4.339-4.287,7.393c-0.003,3.054,1.627,5.876,4.274,7.4
			c2.647,1.524,5.906,1.517,8.546-0.018l7.383-4.267c2.649-1.519,4.284-4.339,4.287-7.393c0.003-3.054-1.628-5.876-4.274-7.4
			S202.64,387.877,200,389.413z"/>
		<path d="M307.742,345.6c1.496,0.002,2.965-0.394,4.258-1.146l7.383-4.267c2.649-1.519,4.284-4.339,4.287-7.393
			c0.003-3.054-1.627-5.876-4.274-7.4c-2.647-1.524-5.906-1.517-8.546,0.018l-7.383,4.267c-3.348,1.93-4.98,5.87-3.978,9.602
			C300.491,343.014,303.877,345.606,307.742,345.6z"/>
		<path d="M230.4,411.271c-1.96-1.133-4.29-1.44-6.477-0.854c-2.187,0.586-4.051,2.017-5.182,3.979l-4.267,7.392
			c-2.353,4.082-0.954,9.299,3.127,11.655s9.298,0.958,11.656-3.121l4.267-7.392c1.132-1.96,1.439-4.29,0.853-6.477
			C233.792,414.266,232.361,412.402,230.4,411.271z"/>
		<path d="M281.6,322.596c4.083,2.354,9.301,0.956,11.658-3.125l4.267-7.392c2.353-4.082,0.954-9.299-3.127-11.655
			c-4.081-2.356-9.298-0.958-11.656,3.121l-4.267,7.392c-1.132,1.96-1.439,4.29-0.853,6.477
			C278.208,319.601,279.639,321.465,281.6,322.596z"/>
		<path d="M221.867,366.933c0,18.851,15.282,34.133,34.133,34.133s34.133-15.282,34.133-34.133
			c0-18.851-15.282-34.133-34.133-34.133C237.157,332.82,221.887,348.09,221.867,366.933z M256,349.867
			c9.426,0,17.067,7.641,17.067,17.067S265.426,384,256,384c-9.426,0-17.067-7.641-17.067-17.067
			C238.944,357.512,246.579,349.877,256,349.867z"/>
	</g>
</g>
<g>
</g>
<g>
</g>
<g>
</g>
<g>
</g>
<g>
</g>
<g>
</g>
<g>
</g>
<g>
</g>
<g>
</g>
<g>
</g>
<g>
</g>
<g>
</g>
<g>
</g>
<g>
</g>
<g>
</g>
</svg>
