<svg id="Layer_1" enable-background="new 0 0 512 512" height="512" viewBox="0 0 512 512" width="512" xmlns="http://www.w3.org/2000/svg"><g><g><path d="m438.432 34.293v312.33c0 14.8-11.99 26.79-26.79 26.79h-311.29c-14.8 0-26.79-11.99-26.79-26.79v-312.33c0-14.8 11.99-26.79 26.79-26.79h311.29c14.8 0 26.79 11.99 26.79 26.79z" fill="#e5f5f9"/><path d="m103.532 37.563h304.92v260.7h-304.92z" fill="#5cd5ff"/><path d="m438.432 34.293v312.33c0 14.8-11.99 26.79-26.79 26.79h-37.98c14.8 0 26.79-11.99 26.79-26.79v-312.33c0-14.8-11.99-26.79-26.79-26.79h37.98c14.8 0 26.79 11.99 26.79 26.79z" fill="#bfd5dd"/><path d="m373.662 37.563h34.79v260.7h-34.79z" fill="#5ab5ff"/><path d="m408.452 253.503v44.76h-304.92v-80.79h39.14l65.63-65.64 73.02 73.02 49.24-49.25 43.1 43.11z" fill="#91ff31"/><path d="m408.452 253.503v44.76h-34.79v-79.55z" fill="#00ea80"/><path d="m312.512 113.563c0 17.63-14.29 31.92-31.92 31.92-4.66 0-9.08-1-13.07-2.79-11.11-4.99-18.85-16.16-18.85-29.13s7.74-24.13 18.85-29.12c3.99-1.79 8.41-2.79 13.07-2.79 17.63 0 31.92 14.29 31.92 31.91z" fill="#ffeb31"/><path d="m312.512 113.563c0 17.63-14.29 31.92-31.92 31.92-4.66 0-9.08-1-13.07-2.79 11.12-4.99 18.86-16.16 18.86-29.13s-7.74-24.13-18.86-29.12c3.99-1.79 8.41-2.79 13.07-2.79 17.63 0 31.92 14.29 31.92 31.91z" fill="#ffce00"/></g><path d="m336.21 424.28c0 44.3-35.91 80.22-80.22 80.22-5.65 0-11.17-.59-16.5-1.7-36.38-7.61-63.72-39.87-63.72-78.52s27.34-70.92 63.72-78.52c5.33-1.11 10.85-1.7 16.5-1.7 44.31 0 80.22 35.91 80.22 80.22z" fill="#91ff31"/><path d="m336.21 424.28c0 44.3-35.91 80.22-80.22 80.22-5.65 0-11.17-.59-16.5-1.7 36.39-7.61 63.72-39.87 63.72-78.52s-27.33-70.92-63.72-78.52c5.33-1.11 10.85-1.7 16.5-1.7 44.31 0 80.22 35.91 80.22 80.22z" fill="#00ea80"/></g><g><path d="m411.648 0h-311.296c-18.907 0-34.289 15.382-34.289 34.289v312.335c0 18.907 15.382 34.289 34.289 34.289h28.737c4.143 0 7.5-3.358 7.5-7.5s-3.357-7.5-7.5-7.5h-28.737c-10.636 0-19.289-8.653-19.289-19.289v-312.335c0-10.636 8.653-19.289 19.289-19.289h311.296c10.636 0 19.289 8.653 19.289 19.289v312.335c0 10.636-8.653 19.289-19.289 19.289h-90.221c-16.076-18.002-39.449-29.356-65.426-29.356s-49.35 11.354-65.426 29.356h-26.873c-4.143 0-7.5 3.358-7.5 7.5s3.357 7.5 7.5 7.5h16.069c-7.309 12.798-11.491 27.602-11.491 43.365-.001 48.37 39.35 87.722 87.72 87.722 34.092 0 65.364-20.004 79.67-50.963 1.737-3.76.098-8.217-3.663-9.954s-8.217-.097-9.954 3.662c-11.86 25.669-37.788 42.255-66.053 42.255-40.099 0-72.722-32.623-72.722-72.722s32.623-72.722 72.722-72.722 72.722 32.623 72.722 72.722c0 4.142 3.357 7.5 7.5 7.5s7.5-3.358 7.5-7.5c0-15.763-4.182-30.567-11.491-43.365h79.417c18.907 0 34.289-15.382 34.289-34.289v-312.335c0-18.907-15.382-34.289-34.289-34.289z"/><path d="m408.459 76.499c4.143 0 7.5-3.358 7.5-7.5v-31.436c0-4.142-3.357-7.5-7.5-7.5h-304.918c-4.143 0-7.5 3.358-7.5 7.5v260.694c0 4.142 3.357 7.5 7.5 7.5h304.919c4.143 0 7.5-3.358 7.5-7.5v-194.563c0-4.142-3.357-7.5-7.5-7.5s-7.5 3.358-7.5 7.5v131.698l-65.09-65.09c-2.929-2.929-7.677-2.93-10.607 0l-43.939 43.939-67.709-67.709c-2.931-2.93-7.679-2.929-10.607 0l-63.438 63.438h-28.528v-164.907h289.919v23.936c-.002 4.142 3.356 7.5 7.498 7.5zm-265.784 148.471c1.989 0 3.896-.79 5.304-2.197l60.331-60.332 67.709 67.709c2.93 2.929 7.678 2.929 10.607 0l43.939-43.939 70.394 70.394v34.151h-289.918v-65.786z"/><path d="m241.177 113.565c0 21.736 17.684 39.419 39.419 39.419s39.419-17.683 39.419-39.419-17.684-39.419-39.419-39.419-39.419 17.684-39.419 39.419zm63.838 0c0 13.465-10.954 24.419-24.419 24.419s-24.419-10.954-24.419-24.419 10.954-24.419 24.419-24.419 24.419 10.955 24.419 24.419z"/><path d="m256 470.874c4.143 0 7.5-3.358 7.5-7.5v-31.596h31.595c4.143 0 7.5-3.358 7.5-7.5s-3.357-7.5-7.5-7.5h-31.595v-31.595c0-4.142-3.357-7.5-7.5-7.5s-7.5 3.358-7.5 7.5v31.595h-31.596c-4.143 0-7.5 3.358-7.5 7.5s3.357 7.5 7.5 7.5h31.596v31.596c0 4.142 3.358 7.5 7.5 7.5z"/></g></svg>